<?xml version="1.0" encoding="UTF-8" standalone="no"?> <svg width="43.7444mm" height="61.3833mm"  viewBox="0 0 124.35 174.35"  xmlns="http://www.w3.org/2000/svg" xmlns:xlink="http://www.w3.org/1999/xlink"  version="1.2" baseProfile="tiny"> <title>Generated with ETE http://etetoolkit.org</title> <desc>Generated with ETE http://etetoolkit.org</desc> <defs> </defs> <g fill="none" stroke="black" stroke-width="1" fill-rule="evenodd" stroke-linecap="square" stroke-linejoin="bevel" >      <g fill="none" stroke="none" transform="matrix(1,0,0,1,0,0)" font-family=".AppleSystemUIFont" font-size="13pt" font-weight="400" font-style="normal"  > <rect x="0" y="0" width="124.35" height="174.35"/> </g>      <g fill="none" stroke="none" transform="matrix(1,0,0,1,62.1752,62.1752)" font-family=".AppleSystemUIFont" font-size="13pt" font-weight="400" font-style="normal"  > <rect x="-61.1752" y="-61.1752" width="122.35" height="122.35"/> </g>                                                                          <g fill="#0030c1" fill-opacity="1" stroke="#0030c1" stroke-opacity="1" stroke-width="1" stroke-linecap="square" stroke-linejoin="bevel" transform="matrix(-0.999962,0.00872654,-0.00872654,-0.999962,55.2597,63.7357)" font-family=".AppleSystemUIFont" font-size="13pt" font-weight="400" font-style="normal"  > <circle cx="1.5" cy="1.5" r="1.5"/> </g>                  <g fill="none" stroke="#000000" stroke-opacity="1" stroke-width="1" stroke-linecap="butt" stroke-linejoin="bevel" transform="matrix(1,0,0,1,62.1752,62.1752)" font-family=".AppleSystemUIFont" font-size="13pt" font-weight="400" font-style="normal"  > <path vector-effect="non-scaling-stroke" fill-rule="evenodd" d="M8.03045,-6.02971 C6.19823,-8.46601 3.28312,-10.0416 0,-10.0416 C-5.54583,-10.0416 -10.0416,-5.54583 -10.0416,0 C-10.0416,5.54583 -5.54583,10.0416 0,10.0416 C3.34607,10.0416 6.3099,8.405 8.13466,5.88861 "/> </g>            <g fill="none" stroke="#2ca02c" stroke-opacity="1" stroke-width="4" stroke-linecap="butt" stroke-linejoin="bevel" transform="matrix(0.810042,0.586372,-0.586372,0.810042,71.4821,66.4433)" font-family=".AppleSystemUIFont" font-size="13pt" font-weight="400" font-style="normal"  > <polyline fill="none" vector-effect="none" points="0,2 9.23859,2 " /> </g>      <g fill="#0030c1" fill-opacity="1" stroke="#0030c1" stroke-opacity="1" stroke-width="1" stroke-linecap="square" stroke-linejoin="bevel" transform="matrix(0.810042,0.586372,-0.586372,0.810042,78.6726,72.2656)" font-family=".AppleSystemUIFont" font-size="13pt" font-weight="400" font-style="normal"  > <circle cx="1.5" cy="1.5" r="1.5"/> </g>                  <g fill="none" stroke="#2ca02c" stroke-opacity="1" stroke-width="4" stroke-linecap="butt" stroke-linejoin="bevel" transform="matrix(1,0,0,1,62.1752,62.1752)" font-family=".AppleSystemUIFont" font-size="13pt" font-weight="400" font-style="normal"  > <path vector-effect="none" fill-rule="evenodd" d="M7.61805,23.1411 C17.3386,19.943 24.3562,10.791 24.3562,0 "/> </g>            <g fill="none" stroke="#2ca02c" stroke-opacity="1" stroke-width="4" stroke-linecap="butt" stroke-linejoin="bevel" transform="matrix(1,0,0,1,88.5314,56.1752)" font-family=".AppleSystemUIFont" font-size="13pt" font-weight="400" font-style="normal"  > <polyline fill="none" vector-effect="none" points="-4,6 9.23859,6 " /> </g>      <g fill="#0030c1" fill-opacity="1" stroke="#0030c1" stroke-opacity="1" stroke-width="1" stroke-linecap="square" stroke-linejoin="bevel" transform="matrix(1,0,0,1,97.77,60.6752)" font-family=".AppleSystemUIFont" font-size="13pt" font-weight="400" font-style="normal"  > <circle cx="1.5" cy="1.5" r="1.5"/> </g>          <g fill="none" stroke="#000000" stroke-opacity="1" stroke-width="1" stroke-linecap="square" stroke-linejoin="bevel" transform="matrix(1,0,0,1,100.77,56.1752)" font-family="Arial" font-size="10pt" font-weight="400" font-style="normal"  > <text fill="#000000" fill-opacity="1" stroke="none" xml:space="preserve" x="0" y="9.04688" font-family="Arial" font-size="10pt" font-weight="400" font-style="normal"   >1</text> </g>                    <g fill="none" stroke="#2ca02c" stroke-opacity="1" stroke-width="4" stroke-linecap="butt" stroke-linejoin="bevel" transform="matrix(0.810042,0.586372,-0.586372,0.810042,87.0431,72.7695)" font-family=".AppleSystemUIFont" font-size="13pt" font-weight="400" font-style="normal"  > <polyline fill="none" vector-effect="none" points="-4,6 9.23859,6 " /> </g>      <g fill="#0030c1" fill-opacity="1" stroke="#0030c1" stroke-opacity="1" stroke-width="1" stroke-linecap="square" stroke-linejoin="bevel" transform="matrix(0.810042,0.586372,-0.586372,0.810042,91.8881,81.832)" font-family=".AppleSystemUIFont" font-size="13pt" font-weight="400" font-style="normal"  > <circle cx="1.5" cy="1.5" r="1.5"/> </g>          <g fill="none" stroke="#000000" stroke-opacity="1" stroke-width="1" stroke-linecap="square" stroke-linejoin="bevel" transform="matrix(0.810042,0.586372,-0.586372,0.810042,96.9569,79.9459)" font-family="Arial" font-size="10pt" font-weight="400" font-style="normal"  > <text fill="#000000" fill-opacity="1" stroke="none" xml:space="preserve" x="0" y="9.04688" font-family="Arial" font-size="10pt" font-weight="400" font-style="normal"   >4</text> </g>                    <g fill="none" stroke="#2ca02c" stroke-opacity="1" stroke-width="4" stroke-linecap="butt" stroke-linejoin="bevel" transform="matrix(0.312335,0.949972,-0.949972,0.312335,76.107,85.3389)" font-family=".AppleSystemUIFont" font-size="13pt" font-weight="400" font-style="normal"  > <polyline fill="none" vector-effect="none" points="-4,6 9.23859,6 " /> </g>      <g fill="#0030c1" fill-opacity="1" stroke="#0030c1" stroke-opacity="1" stroke-width="1" stroke-linecap="square" stroke-linejoin="bevel" transform="matrix(0.312335,0.949972,-0.949972,0.312335,74.7177,95.5208)" font-family=".AppleSystemUIFont" font-size="13pt" font-weight="400" font-style="normal"  > <circle cx="1.5" cy="1.5" r="1.5"/> </g>          <g fill="none" stroke="#000000" stroke-opacity="1" stroke-width="1" stroke-linecap="square" stroke-linejoin="bevel" transform="matrix(0.312335,0.949972,-0.949972,0.312335,79.9296,96.9652)" font-family="Arial" font-size="10pt" font-weight="400" font-style="normal"  > <text fill="#000000" fill-opacity="1" stroke="none" xml:space="preserve" x="0" y="9.04688" font-family="Arial" font-size="10pt" font-weight="400" font-style="normal"   >8</text> </g>                    <g fill="none" stroke="#1f77b4" stroke-opacity="1" stroke-width="4" stroke-linecap="butt" stroke-linejoin="bevel" transform="matrix(-0.804894,0.593419,-0.593419,-0.804894,55.2797,69.7439)" font-family=".AppleSystemUIFont" font-size="13pt" font-weight="400" font-style="normal"  > <polyline fill="none" vector-effect="none" points="0,2 9.23859,2 " /> </g>      <g fill="#0030c1" fill-opacity="1" stroke="#0030c1" stroke-opacity="1" stroke-width="1" stroke-linecap="square" stroke-linejoin="bevel" transform="matrix(-0.804894,0.593419,-0.593419,-0.804894,47.5469,74.8238)" font-family=".AppleSystemUIFont" font-size="13pt" font-weight="400" font-style="normal"  > <circle cx="1.5" cy="1.5" r="1.5"/> </g>                  <g fill="none" stroke="#1f77b4" stroke-opacity="1" stroke-width="4" stroke-linecap="butt" stroke-linejoin="bevel" transform="matrix(1,0,0,1,62.1752,62.1752)" font-family=".AppleSystemUIFont" font-size="13pt" font-weight="400" font-style="normal"  > <path vector-effect="none" fill-rule="evenodd" d="M-24.3553,0.213669 C-24.2627,10.988 -17.1742,20.0932 -7.41088,23.2082 "/> </g>            <g fill="none" stroke="#1f77b4" stroke-opacity="1" stroke-width="4" stroke-linecap="butt" stroke-linejoin="bevel" transform="matrix(-0.304033,0.952661,-0.952661,-0.304033,59.8781,89.108)" font-family=".AppleSystemUIFont" font-size="13pt" font-weight="400" font-style="normal"  > <polyline fill="none" vector-effect="none" points="-4,6 9.23859,6 " /> </g>      <g fill="#0030c1" fill-opacity="1" stroke="#0030c1" stroke-opacity="1" stroke-width="1" stroke-linecap="square" stroke-linejoin="bevel" transform="matrix(-0.304033,0.952661,-0.952661,-0.304033,52.7822,96.5411)" font-family=".AppleSystemUIFont" font-size="13pt" font-weight="400" font-style="normal"  > <circle cx="1.5" cy="1.5" r="1.5"/> </g>          <g fill="none" stroke="#000000" stroke-opacity="1" stroke-width="1" stroke-linecap="square" stroke-linejoin="bevel" transform="matrix(0.320613,-0.94721,0.94721,0.320613,42.884,102.719)" font-family="Arial" font-size="10pt" font-weight="400" font-style="normal"  > <text fill="#000000" fill-opacity="1" stroke="none" xml:space="preserve" x="0" y="9.04688" font-family="Arial" font-size="10pt" font-weight="400" font-style="normal"   >5</text> </g>                    <g fill="none" stroke="#1f77b4" stroke-opacity="1" stroke-width="4" stroke-linecap="butt" stroke-linejoin="bevel" transform="matrix(-0.999962,0.00872654,-0.00872654,-0.999962,35.8375,64.4052)" font-family=".AppleSystemUIFont" font-size="13pt" font-weight="400" font-style="normal"  > <polyline fill="none" vector-effect="none" points="-4,2 9.23859,2 " /> </g>      <g fill="#0030c1" fill-opacity="1" stroke="#0030c1" stroke-opacity="1" stroke-width="1" stroke-linecap="square" stroke-linejoin="bevel" transform="matrix(-0.999962,0.00872654,-0.00872654,-0.999962,26.5949,63.9858)" font-family=".AppleSystemUIFont" font-size="13pt" font-weight="400" font-style="normal"  > <circle cx="1.5" cy="1.5" r="1.5"/> </g>                  <g fill="none" stroke="#1f77b4" stroke-opacity="1" stroke-width="4" stroke-linecap="butt" stroke-linejoin="bevel" transform="matrix(1,0,0,1,62.1752,62.1752)" font-family=".AppleSystemUIFont" font-size="13pt" font-weight="400" font-style="normal"  > <path vector-effect="none" fill-rule="evenodd" d="M-33.1306,-23.5452 C-37.8602,-16.9021 -40.6417,-8.7759 -40.6417,0 C-40.6417,9.03067 -37.6963,17.3734 -32.7138,24.12 "/> </g>            <g fill="none" stroke="#d62728" stroke-opacity="1" stroke-width="4" stroke-linecap="butt" stroke-linejoin="bevel" transform="matrix(-0.804894,0.593419,-0.593419,-0.804894,31.4137,92.309)" font-family=".AppleSystemUIFont" font-size="13pt" font-weight="400" font-style="normal"  > <polyline fill="none" vector-effect="none" points="-4,6 9.23859,6 " /> </g>      <g fill="#0030c1" fill-opacity="1" stroke="#0030c1" stroke-opacity="1" stroke-width="1" stroke-linecap="square" stroke-linejoin="bevel" transform="matrix(-0.804894,0.593419,-0.593419,-0.804894,21.3072,94.1693)" font-family=".AppleSystemUIFont" font-size="13pt" font-weight="400" font-style="normal"  > <circle cx="1.5" cy="1.5" r="1.5"/> </g>          <g fill="none" stroke="#000000" stroke-opacity="1" stroke-width="1" stroke-linecap="square" stroke-linejoin="bevel" transform="matrix(0.815128,-0.579281,0.579281,0.815128,9.66668,93.3696)" font-family="Arial" font-size="10pt" font-weight="400" font-style="normal"  > <text fill="#000000" fill-opacity="1" stroke="none" xml:space="preserve" x="0" y="9.04688" font-family="Arial" font-size="10pt" font-weight="400" font-style="normal"   >6</text> </g>                    <g fill="none" stroke="#1f77b4" stroke-opacity="1" stroke-width="4" stroke-linecap="butt" stroke-linejoin="bevel" transform="matrix(-0.999962,0.00872654,-0.00872654,-0.999962,19.5875,68.5471)" font-family=".AppleSystemUIFont" font-size="13pt" font-weight="400" font-style="normal"  > <polyline fill="none" vector-effect="none" points="-4,6 9.23859,6 " /> </g>      <g fill="#0030c1" fill-opacity="1" stroke="#0030c1" stroke-opacity="1" stroke-width="1" stroke-linecap="square" stroke-linejoin="bevel" transform="matrix(-0.999962,0.00872654,-0.00872654,-0.999962,10.31,64.1279)" font-family=".AppleSystemUIFont" font-size="13pt" font-weight="400" font-style="normal"  > <circle cx="1.5" cy="1.5" r="1.5"/> </g>          <g fill="none" stroke="#000000" stroke-opacity="1" stroke-width="1" stroke-linecap="square" stroke-linejoin="bevel" transform="matrix(0.999962,0.00872654,-0.00872654,0.999962,1.34963,56.6544)" font-family="Arial" font-size="10pt" font-weight="400" font-style="normal"  > <text fill="#000000" fill-opacity="1" stroke="none" xml:space="preserve" x="0" y="9.04688" font-family="Arial" font-size="10pt" font-weight="400" font-style="normal"   >7</text> </g>                    <g fill="none" stroke="#d62728" stroke-opacity="1" stroke-width="4" stroke-linecap="butt" stroke-linejoin="bevel" transform="matrix(-0.815128,-0.579281,0.579281,-0.815128,23.9411,42.3645)" font-family=".AppleSystemUIFont" font-size="13pt" font-weight="400" font-style="normal"  > <polyline fill="none" vector-effect="none" points="-4,6 9.23859,6 " /> </g>      <g fill="#0030c1" fill-opacity="1" stroke="#0030c1" stroke-opacity="1" stroke-width="1" stroke-linecap="square" stroke-linejoin="bevel" transform="matrix(-0.815128,-0.579281,0.579281,-0.815128,19.0173,33.3447)" font-family=".AppleSystemUIFont" font-size="13pt" font-weight="400" font-style="normal"  > <circle cx="1.5" cy="1.5" r="1.5"/> </g>          <g fill="none" stroke="#000000" stroke-opacity="1" stroke-width="1" stroke-linecap="square" stroke-linejoin="bevel" transform="matrix(0.804894,0.593419,-0.593419,0.804894,16.1412,22.0367)" font-family="Arial" font-size="10pt" font-weight="400" font-style="normal"  > <text fill="#000000" fill-opacity="1" stroke="none" xml:space="preserve" x="0" y="9.04688" font-family="Arial" font-size="10pt" font-weight="400" font-style="normal"   >9</text> </g>                    <g fill="none" stroke="#d62728" stroke-opacity="1" stroke-width="4" stroke-linecap="butt" stroke-linejoin="bevel" transform="matrix(-0.320613,-0.94721,0.94721,-0.320613,53.2725,54.5874)" font-family=".AppleSystemUIFont" font-size="13pt" font-weight="400" font-style="normal"  > <polyline fill="none" vector-effect="none" points="0,6 9.23859,6 " /> </g>      <g fill="#0030c1" fill-opacity="1" stroke="#0030c1" stroke-opacity="1" stroke-width="1" stroke-linecap="square" stroke-linejoin="bevel" transform="matrix(-0.320613,-0.94721,0.94721,-0.320613,54.573,44.3938)" font-family=".AppleSystemUIFont" font-size="13pt" font-weight="400" font-style="normal"  > <circle cx="1.5" cy="1.5" r="1.5"/> </g>          <g fill="none" stroke="#000000" stroke-opacity="1" stroke-width="1" stroke-linecap="square" stroke-linejoin="bevel" transform="matrix(0.304033,0.952661,-0.952661,0.304033,58.874,33.5474)" font-family="Arial" font-size="10pt" font-weight="400" font-style="normal"  > <text fill="#000000" fill-opacity="1" stroke="none" xml:space="preserve" x="0" y="9.04688" font-family="Arial" font-size="10pt" font-weight="400" font-style="normal"   >2</text> </g>                    <g fill="none" stroke="#000000" stroke-opacity="1" stroke-width="1" stroke-linecap="butt" stroke-linejoin="bevel" transform="matrix(0.295708,-0.955278,0.955278,0.295708,59.413,50.8085)" font-family=".AppleSystemUIFont" font-size="13pt" font-weight="400" font-style="normal"  > <polyline fill="none" vector-effect="non-scaling-stroke" points="0,6 9.23859,6 " /> </g>      <g fill="#0030c1" fill-opacity="1" stroke="#0030c1" stroke-opacity="1" stroke-width="1" stroke-linecap="square" stroke-linejoin="bevel" transform="matrix(0.295708,-0.955278,0.955278,0.295708,66.4436,43.3137)" font-family=".AppleSystemUIFont" font-size="13pt" font-weight="400" font-style="normal"  > <circle cx="1.5" cy="1.5" r="1.5"/> </g>          <g fill="none" stroke="#000000" stroke-opacity="1" stroke-width="1" stroke-linecap="square" stroke-linejoin="bevel" transform="matrix(0.295708,-0.955278,0.955278,0.295708,63.032,39.1172)" font-family="Arial" font-size="10pt" font-weight="400" font-style="normal"  > <text fill="#000000" fill-opacity="1" stroke="none" xml:space="preserve" x="0" y="9.04688" font-family="Arial" font-size="10pt" font-weight="400" font-style="normal"   >3</text> </g>                    <g fill="none" stroke="#000000" stroke-opacity="1" stroke-width="1" stroke-linecap="butt" stroke-linejoin="bevel" transform="matrix(0.799685,-0.60042,0.60042,0.799685,66.6028,51.348)" font-family=".AppleSystemUIFont" font-size="13pt" font-weight="400" font-style="normal"  > <polyline fill="none" vector-effect="non-scaling-stroke" points="0,6 9.23859,6 " /> </g>      <g fill="#0030c1" fill-opacity="1" stroke="#0030c1" stroke-opacity="1" stroke-width="1" stroke-linecap="square" stroke-linejoin="bevel" transform="matrix(0.799685,-0.60042,0.60042,0.799685,76.6927,49.3995)" font-family=".AppleSystemUIFont" font-size="13pt" font-weight="400" font-style="normal"  > <circle cx="1.5" cy="1.5" r="1.5"/> </g>          <g fill="none" stroke="#000000" stroke-opacity="1" stroke-width="1" stroke-linecap="square" stroke-linejoin="bevel" transform="matrix(0.799685,-0.60042,0.60042,0.799685,76.3899,43.9997)" font-family="Arial" font-size="10pt" font-weight="400" font-style="normal"  > <text fill="#000000" fill-opacity="1" stroke="none" xml:space="preserve" x="0" y="9.04688" font-family="Arial" font-size="10pt" font-weight="400" font-style="normal"   >0</text> </g>                                                                      <g fill="none" stroke="#000000" stroke-opacity="1" stroke-width="1" stroke-linecap="square" stroke-linejoin="bevel" transform="matrix(1,0,0,1,1,124.35)" font-family=".AppleSystemUIFont" font-size="13pt" font-weight="400" font-style="normal"  > <polyline fill="none" vector-effect="none" points="0,5 50,5 " /> </g>      <g fill="none" stroke="#000000" stroke-opacity="1" stroke-width="1" stroke-linecap="square" stroke-linejoin="bevel" transform="matrix(1,0,0,1,1,124.35)" font-family=".AppleSystemUIFont" font-size="13pt" font-weight="400" font-style="normal"  > <polyline fill="none" vector-effect="none" points="0,0 0,10 " /> </g>      <g fill="none" stroke="#000000" stroke-opacity="1" stroke-width="1" stroke-linecap="square" stroke-linejoin="bevel" transform="matrix(1,0,0,1,1,124.35)" font-family=".AppleSystemUIFont" font-size="13pt" font-weight="400" font-style="normal"  > <polyline fill="none" vector-effect="none" points="50,0 50,10 " /> </g>      <g fill="none" stroke="#000000" stroke-opacity="1" stroke-width="1" stroke-linecap="square" stroke-linejoin="bevel" transform="matrix(1,0,0,1,1,134.35)" font-family=".AppleSystemUIFont" font-size="13pt" font-weight="400" font-style="normal"  > <text fill="#000000" fill-opacity="1" stroke="none" xml:space="preserve" x="0" y="12.5625" font-family=".AppleSystemUIFont" font-size="13pt" font-weight="400" font-style="normal"   >5.41208</text> </g>     </g> </svg> 